<svg width="26" height="20" viewBox="0 0 26 20" fill="none" xmlns="http://www.w3.org/2000/svg">
<path d="M22.01 1.65782C20.3244 0.877037 18.5456 0.320279 16.718 0.00149195C16.7014 -0.00178468 16.6841 0.000367233 16.6687 0.00763754C16.6533 0.0149078 16.6406 0.0269207 16.6325 0.0419435C16.405 0.451927 16.1515 0.986545 15.9738 1.40855C14.0037 1.10657 11.9998 1.10657 10.0297 1.40855C9.83201 0.940956 9.60887 0.484725 9.36133 0.0419435C9.3528 0.0272571 9.34005 0.0155289 9.32477 0.00830691C9.30949 0.0010849 9.2924 -0.00129133 9.27575 0.00149195C7.44806 0.319617 5.66915 0.876401 3.98382 1.65782C3.96955 1.66386 3.95746 1.67416 3.94916 1.68734C0.577921 6.77004 -0.346136 11.727 0.107768 16.6217C0.10887 16.6338 0.112417 16.6456 0.118192 16.6563C0.123966 16.667 0.131846 16.6764 0.14135 16.684C2.10385 18.1514 4.29918 19.2716 6.63358 19.9966C6.65003 20.0014 6.66755 20.0011 6.6838 19.9956C6.70005 19.9902 6.71427 19.9798 6.72458 19.966C7.22643 19.2778 7.67067 18.5486 8.0527 17.786C8.05803 17.7756 8.0611 17.7641 8.06172 17.7524C8.06234 17.7407 8.06049 17.7289 8.0563 17.718C8.0521 17.707 8.04565 17.6971 8.03738 17.6889C8.0291 17.6806 8.01919 17.6742 8.00829 17.6701C7.30785 17.3996 6.62975 17.0735 5.98035 16.6949C5.96844 16.688 5.95843 16.6782 5.95119 16.6664C5.94395 16.6546 5.93971 16.6411 5.93885 16.6273C5.93799 16.6134 5.94054 16.5996 5.94627 16.587C5.952 16.5743 5.96073 16.5634 5.97168 16.555C6.10844 16.4517 6.2428 16.3453 6.37467 16.2357C6.38621 16.2263 6.40011 16.2203 6.41484 16.2183C6.42957 16.2164 6.44454 16.2186 6.45808 16.2248C10.7133 18.1851 15.3195 18.1851 19.5249 16.2248C19.5386 16.2184 19.5537 16.2161 19.5687 16.218C19.5836 16.2199 19.5977 16.2261 19.6094 16.2357C19.7394 16.3429 19.8759 16.4522 20.0134 16.555C20.0243 16.5632 20.0329 16.574 20.0387 16.5864C20.0445 16.5988 20.0471 16.6124 20.0465 16.6261C20.0459 16.6398 20.0419 16.6531 20.035 16.6649C20.0281 16.6767 20.0185 16.6866 20.0069 16.6938C19.359 17.076 18.6803 17.4022 17.9779 17.669C17.967 17.6733 17.9571 17.6798 17.9488 17.6881C17.9405 17.6965 17.934 17.7065 17.9299 17.7175C17.9257 17.7286 17.9238 17.7404 17.9245 17.7522C17.9251 17.764 17.9282 17.7755 17.9335 17.786C18.3235 18.5491 18.7698 19.2751 19.2605 19.9649C19.2706 19.979 19.2849 19.9895 19.3012 19.995C19.3175 20.0005 19.3351 20.0007 19.3515 19.9955C21.6898 19.2727 23.8887 18.1524 25.8535 16.6829C25.8631 16.6761 25.8711 16.6673 25.8771 16.6571C25.8831 16.6469 25.8868 16.6356 25.8882 16.6238C26.4298 10.9639 24.9804 6.04738 22.0436 1.68953C22.0367 1.67483 22.0247 1.66426 22.01 1.65782ZM8.6886 13.6403C7.40706 13.6403 6.35192 12.454 6.35192 10.9956C6.35192 9.53824 7.38756 8.35093 8.6886 8.35093C9.9994 8.35093 11.0459 9.54918 11.0253 10.9967C11.0253 12.454 9.98965 13.6403 8.6886 13.6403ZM17.3279 13.6403C16.0464 13.6403 14.9913 12.454 14.9913 10.9956C14.9913 9.53824 16.0258 8.35093 17.3279 8.35093C18.6387 8.35093 19.6852 9.54918 19.6646 10.9967C19.6646 12.454 18.6398 13.6403 17.3279 13.6403Z" fill="black"/>
</svg>
